<?xml version="1.0" encoding="UTF-8"?>
<!DOCTYPE svg PUBLIC "-//W3C//DTD SVG 1.1//EN" "http://www.w3.org/Graphics/SVG/1.1/DTD/svg11.dtd">
<svg xmlns="http://www.w3.org/2000/svg" version="1.1" width="750px" height="750px" style="shape-rendering:geometricPrecision; text-rendering:geometricPrecision; image-rendering:optimizeQuality; fill-rule:evenodd; clip-rule:evenodd" xmlns:xlink="http://www.w3.org/1999/xlink">
<g><path style="opacity:0.996" fill="#fefefe" d="M 347.5,-0.5 C 365.5,-0.5 383.5,-0.5 401.5,-0.5C 519.125,10.7089 612.625,63.7089 682,158.5C 721.268,215.468 743.768,278.468 749.5,347.5C 749.5,365.5 749.5,383.5 749.5,401.5C 738.291,519.125 685.291,612.625 590.5,682C 533.532,721.268 470.532,743.768 401.5,749.5C 383.5,749.5 365.5,749.5 347.5,749.5C 229.875,738.291 136.375,685.291 67,590.5C 27.732,533.532 5.23201,470.532 -0.5,401.5C -0.5,383.5 -0.5,365.5 -0.5,347.5C 10.7089,229.875 63.7089,136.375 158.5,67C 215.468,27.732 278.468,5.23201 347.5,-0.5 Z"/></g>
<g><path style="opacity:1" fill="#9aa49a" d="M 374.5,176.5 C 371.713,175.523 368.713,175.19 365.5,175.5C 365.5,156.5 365.5,137.5 365.5,118.5C 359.642,118.178 353.975,118.511 348.5,119.5C 250.662,131.5 180.162,181.833 137,270.5C 132.963,282.069 128.796,293.569 124.5,305C 113.485,305.832 102.485,305.666 91.5,304.5C 120.68,202.487 185.347,133.987 285.5,99C 306.242,93.5849 327.242,89.5849 348.5,87C 364.888,86.1015 381.221,86.6015 397.5,88.5C 396.853,108.234 397.52,127.734 399.5,147C 437.891,152.845 472.557,167.345 503.5,190.5C 509.833,184.833 515.833,178.833 521.5,172.5C 495.939,152.719 467.606,138.219 436.5,129C 435.18,117.895 435.18,106.728 436.5,95.5C 487.262,108.865 530.928,134.031 567.5,171C 547.36,192.307 526.694,213.14 505.5,233.5C 486.476,215.997 465.143,201.831 441.5,191C 419.861,182.839 397.527,178.006 374.5,176.5 Z"/></g>
<g><path style="opacity:1" fill="#d9ddd9" d="M 348.5,119.5 C 353.975,118.511 359.642,118.178 365.5,118.5C 365.5,137.5 365.5,156.5 365.5,175.5C 368.713,175.19 371.713,175.523 374.5,176.5C 371.167,176.5 367.833,176.5 364.5,176.5C 364.5,157.5 364.5,138.5 364.5,119.5C 359.167,119.5 353.833,119.5 348.5,119.5 Z"/></g>
<g><path style="opacity:1" fill="#9aa49a" d="M 322.5,148.5 C 323.833,148.5 325.167,148.5 326.5,148.5C 326.5,159.5 326.5,170.5 326.5,181.5C 268.738,195.77 225.238,228.77 196,280.5C 191.664,288.169 188.164,296.169 185.5,304.5C 174.181,305.666 162.848,305.832 151.5,305C 175.607,233.556 222.941,184.223 293.5,157C 303.189,153.839 312.856,151.006 322.5,148.5 Z"/></g>
<g><path style="opacity:1" fill="#9aa49a" d="M 348.5,202.5 C 384.205,199.727 418.205,205.894 450.5,221C 457.255,224.792 463.755,228.959 470,233.5C 470.667,234.167 470.667,234.833 470,235.5C 452.886,258.227 436.386,281.394 420.5,305C 419.5,305.667 418.5,305.667 417.5,305C 393.365,289.84 367.699,286.84 340.5,296C 334.875,298.479 329.542,301.479 324.5,305C 309.167,305.667 293.833,305.667 278.5,305C 297.836,279.382 323.502,264.049 355.5,259C 373.428,257.012 390.928,258.846 408,264.5C 408.833,264.167 409.667,263.833 410.5,263.5C 414.667,257.833 418.833,252.167 423,246.5C 423.688,245.668 423.521,245.002 422.5,244.5C 368.845,224.866 320.178,233.366 276.5,270C 265.267,280.224 255.933,291.891 248.5,305C 236.819,305.833 225.152,305.666 213.5,304.5C 240.253,247.785 284.586,214.285 346.5,204C 347.416,203.722 348.082,203.222 348.5,202.5 Z"/></g>
<g><path style="opacity:1" fill="#20b816" d="M 651.5,334.5 C 651.5,330.833 651.5,327.167 651.5,323.5C 648.941,323.198 646.607,323.532 644.5,324.5C 621.59,329.577 607.423,343.577 602,366.5C 600.473,380.393 603.64,393.059 611.5,404.5C 609.065,408.619 606.565,408.952 604,405.5C 590.68,380.184 593.014,356.517 611,334.5C 623.891,321.813 639.391,316.146 657.5,317.5C 657.5,321.5 657.5,325.5 657.5,329.5C 665.245,330.206 672.245,332.872 678.5,337.5C 680.98,336.585 681.647,335.085 680.5,333C 675.948,329.722 670.948,327.556 665.5,326.5C 665.5,324.167 665.5,321.833 665.5,319.5C 675.457,321.98 684.124,326.813 691.5,334C 687.333,338.167 683.167,342.333 679,346.5C 671.078,339.477 661.912,335.477 651.5,334.5 Z"/></g>
<g><path style="opacity:1" fill="#17b70b" d="M 76.5,318.5 C 89.5995,317.608 101.6,320.775 112.5,328C 118.973,334.113 122.307,341.613 122.5,350.5C 116.167,350.5 109.833,350.5 103.5,350.5C 100.612,339.777 93.4455,334.777 82,335.5C 71.9142,335.267 65.7476,339.933 63.5,349.5C 63.6724,354.683 66.0058,358.516 70.5,361C 81.3504,364.796 92.3504,368.13 103.5,371C 124.396,380.735 129.563,395.902 119,416.5C 110.979,425.735 100.812,430.568 88.5,431C 72.4243,433.085 58.591,428.585 47,417.5C 42.7286,411.519 40.562,404.853 40.5,397.5C 47.1667,397.5 53.8333,397.5 60.5,397.5C 60.4765,402.62 62.4765,406.787 66.5,410C 79.1883,416.738 91.0217,415.571 102,406.5C 106.146,399.534 104.98,393.7 98.5,389C 95.5833,387.472 92.5833,386.139 89.5,385C 75.2847,382.875 62.2847,377.875 50.5,370C 39.4624,353.588 41.4624,338.921 56.5,326C 62.8853,322.377 69.552,319.877 76.5,318.5 Z"/></g>
<g><path style="opacity:1" fill="#17b70b" d="M 366.5,318.5 C 379.68,317.301 391.68,320.468 402.5,328C 408.973,334.113 412.307,341.613 412.5,350.5C 406.167,350.5 399.833,350.5 393.5,350.5C 390.592,339.769 383.426,334.769 372,335.5C 362.205,335.292 356.039,339.792 353.5,349C 353.533,354.406 355.866,358.406 360.5,361C 371.355,364.797 382.355,368.131 393.5,371C 414.393,380.722 419.56,395.888 409,416.5C 400.977,425.761 390.811,430.594 378.5,431C 362.424,433.085 348.591,428.585 337,417.5C 332.729,411.519 330.562,404.853 330.5,397.5C 337.167,397.5 343.833,397.5 350.5,397.5C 350.48,404.621 353.813,409.454 360.5,412C 372.137,416.295 382.637,414.462 392,406.5C 396.313,398.855 394.813,392.689 387.5,388C 375.511,384.336 363.511,380.669 351.5,377C 332.959,367.374 328.459,353.207 338,334.5C 345.616,325.613 355.116,320.28 366.5,318.5 Z"/></g>
<g><path style="opacity:1" fill="#10b604" d="M 137.5,320.5 C 166.167,320.5 194.833,320.5 223.5,320.5C 223.5,325.833 223.5,331.167 223.5,336.5C 212.321,336.172 201.321,336.505 190.5,337.5C 190.5,368.167 190.5,398.833 190.5,429.5C 183.833,429.5 177.167,429.5 170.5,429.5C 170.5,398.833 170.5,368.167 170.5,337.5C 159.679,336.505 148.679,336.172 137.5,336.5C 137.5,331.167 137.5,325.833 137.5,320.5 Z"/></g>
<g><path style="opacity:1" fill="#13b707" d="M 258.5,320.5 C 267.085,320.183 275.585,320.517 284,321.5C 296.8,357.425 309.3,393.425 321.5,429.5C 314.468,429.83 307.468,429.497 300.5,428.5C 297.593,419.946 294.593,411.446 291.5,403C 277.821,402.167 264.154,402.334 250.5,403.5C 247.593,412.054 244.593,420.554 241.5,429C 234.476,429.831 227.476,429.664 220.5,428.5C 233.368,392.563 246.034,356.563 258.5,320.5 Z"/></g>
<g><path style="opacity:1" fill="#12b605" d="M 501.5,320.5 C 517.837,320.333 534.17,320.5 550.5,321C 569.987,323.655 580.321,334.822 581.5,354.5C 581.388,369.413 574.721,380.08 561.5,386.5C 569.167,400.5 576.833,414.5 584.5,428.5C 577.167,429.833 569.833,429.833 562.5,428.5C 555.373,415.747 548.373,402.913 541.5,390C 534.842,389.5 528.175,389.334 521.5,389.5C 521.5,402.833 521.5,416.167 521.5,429.5C 514.833,429.5 508.167,429.5 501.5,429.5C 501.5,393.167 501.5,356.833 501.5,320.5 Z"/></g>
<g><path style="opacity:1" fill="#b8e7b4" d="M 644.5,324.5 C 646.607,323.532 648.941,323.198 651.5,323.5C 651.5,327.167 651.5,330.833 651.5,334.5C 650.521,331.375 650.187,328.042 650.5,324.5C 648.5,324.5 646.5,324.5 644.5,324.5 Z"/></g>
<g><path style="opacity:1" fill="#7fd879" d="M 137.5,320.5 C 137.5,325.833 137.5,331.167 137.5,336.5C 148.679,336.172 159.679,336.505 170.5,337.5C 159.167,337.5 147.833,337.5 136.5,337.5C 136.178,331.642 136.511,325.975 137.5,320.5 Z"/></g>
<g><path style="opacity:1" fill="#86da81" d="M 223.5,320.5 C 224.489,325.975 224.822,331.642 224.5,337.5C 213.167,337.5 201.833,337.5 190.5,337.5C 201.321,336.505 212.321,336.172 223.5,336.5C 223.5,331.167 223.5,325.833 223.5,320.5 Z"/></g>
<g><path style="opacity:1" fill="#fbfdfa" d="M 521.5,336.5 C 531.642,335.915 541.642,336.748 551.5,339C 557.881,342.428 560.881,347.761 560.5,355C 560.931,365.451 555.931,371.451 545.5,373C 537.507,373.5 529.507,373.666 521.5,373.5C 521.5,361.167 521.5,348.833 521.5,336.5 Z"/></g>
<g><path style="opacity:1" fill="#1eb713" d="M 644.5,340.5 C 650.898,340.243 657.231,340.743 663.5,342C 666.533,343.178 669.199,344.844 671.5,347C 668.515,351.323 665.515,355.656 662.5,360C 657.355,358.574 652.021,358.24 646.5,359C 636.716,363.68 633.55,371.18 637,381.5C 642.865,391.346 650.865,393.679 661,388.5C 664.362,393.03 667.529,397.697 670.5,402.5C 668.851,404.995 666.517,406.495 663.5,407C 641.876,411.939 627.043,404.105 619,383.5C 615.739,362.003 624.239,347.669 644.5,340.5 Z"/></g>
<g><path style="opacity:1" fill="#fbfdfa" d="M 270.5,342.5 C 276.668,356.668 281.668,371.335 285.5,386.5C 275.833,386.5 266.167,386.5 256.5,386.5C 260.965,371.773 265.631,357.106 270.5,342.5 Z"/></g>
<g><path style="opacity:1" fill="#f5fbf4" d="M 646.5,346.5 C 652.072,345.99 657.405,346.823 662.5,349C 661.833,350 661.167,351 660.5,352C 647.355,349.377 637.522,353.877 631,365.5C 626.698,380.73 631.865,391.23 646.5,397C 650.558,397.767 654.558,397.6 658.5,396.5C 659.5,397.833 660.5,399.167 661.5,400.5C 642.629,405.311 630.463,398.311 625,379.5C 623.635,362.888 630.802,351.888 646.5,346.5 Z"/></g>
<g><path style="opacity:1" fill="#1cb711" d="M 649.5,361.5 C 662.733,362.533 667.233,369.2 663,381.5C 657.827,387.858 651.661,389.025 644.5,385C 636.783,375.129 638.45,367.295 649.5,361.5 Z"/></g>
<g><path style="opacity:1" fill="#1eb812" d="M 431.5,366.5 C 447.833,366.5 464.167,366.5 480.5,366.5C 480.5,371.833 480.5,377.167 480.5,382.5C 464.167,382.5 447.833,382.5 431.5,382.5C 431.5,377.167 431.5,371.833 431.5,366.5 Z"/></g>
<g><path style="opacity:1" fill="#27b91c" d="M 704.5,375.5 C 704.5,373.833 704.5,372.167 704.5,370.5C 695.833,370.5 687.167,370.5 678.5,370.5C 678.216,372.415 678.549,374.081 679.5,375.5C 685.5,375.5 691.5,375.5 697.5,375.5C 695.704,400.131 682.704,414.964 658.5,420C 649.251,421.559 640.584,420.059 632.5,415.5C 633.667,413.833 634.833,412.167 636,410.5C 657.471,418.01 674.471,412.343 687,393.5C 689.09,389.401 690.256,385.067 690.5,380.5C 684.833,380.5 679.167,380.5 673.5,380.5C 673.5,375.5 673.5,370.5 673.5,365.5C 685.5,365.5 697.5,365.5 709.5,365.5C 709.5,368.833 709.5,372.167 709.5,375.5C 707.833,375.5 706.167,375.5 704.5,375.5 Z"/></g>
<g><path style="opacity:1" fill="#c1e7bf" d="M 704.5,375.5 C 703.566,374.432 703.232,373.099 703.5,371.5C 695.5,371.5 687.5,371.5 679.5,371.5C 679.5,372.833 679.5,374.167 679.5,375.5C 678.549,374.081 678.216,372.415 678.5,370.5C 687.167,370.5 695.833,370.5 704.5,370.5C 704.5,372.167 704.5,373.833 704.5,375.5 Z"/></g>
<g><path style="opacity:1" fill="#21b817" d="M 640.5,329.5 C 641.5,329.5 642.5,329.5 643.5,329.5C 643.5,331.833 643.5,334.167 643.5,336.5C 620.982,343.546 611.149,358.88 614,382.5C 616.04,392.256 620.873,400.256 628.5,406.5C 626.539,409.463 624.206,412.129 621.5,414.5C 637.462,426.439 654.796,428.606 673.5,421C 689.278,413.263 698.612,400.763 701.5,383.5C 703.833,383.5 706.167,383.5 708.5,383.5C 703.177,408.991 687.843,424.824 662.5,431C 643.2,433.954 626.534,428.787 612.5,415.5C 615.075,412.681 617.408,409.681 619.5,406.5C 603.627,387.357 602.46,367.357 616,346.5C 622.735,338.571 630.902,332.904 640.5,329.5 Z"/></g>
<g><path style="opacity:1" fill="#9aa49a" d="M 91.5,444.5 C 102.34,443.176 113.34,443.176 124.5,444.5C 133.413,473.658 146.58,500.658 164,525.5C 164.749,526.635 164.583,527.635 163.5,528.5C 156.147,535.021 148.647,541.354 141,547.5C 126.508,528.327 114.508,507.66 105,485.5C 100.365,471.762 95.8646,458.095 91.5,444.5 Z"/></g>
<g><path style="opacity:1" fill="#9aa49a" d="M 151.5,444.5 C 162.674,443.176 174.007,443.176 185.5,444.5C 199.673,481.178 222.339,511.511 253.5,535.5C 241.916,549.587 229.416,562.921 216,575.5C 215.289,577.367 215.789,578.867 217.5,580C 277.413,623.643 344.08,639.309 417.5,627C 507.049,607.121 570.549,555.288 608,471.5C 610.941,462.178 613.774,452.845 616.5,443.5C 627.5,443.5 638.5,443.5 649.5,443.5C 622.625,543.544 560.625,611.711 463.5,648C 374.683,676.079 291.016,665.412 212.5,616C 197.407,605.237 183.24,593.403 170,580.5C 169.333,579.5 169.333,578.5 170,577.5C 182.373,564.295 194.873,551.295 207.5,538.5C 185.584,515.03 168.418,488.363 156,458.5C 155.168,453.508 153.668,448.841 151.5,444.5 Z"/></g>
<g><path style="opacity:1" fill="#9aa49a" d="M 392.5,546.5 C 385.165,546.722 377.831,547.056 370.5,547.5C 359.134,546.793 347.801,545.793 336.5,544.5C 278.834,531.165 237.5,497.665 212.5,444C 224.5,443.333 236.5,443.333 248.5,444C 280.923,497.211 328.257,520.544 390.5,514C 399.664,512.609 408.664,510.609 417.5,508C 418.451,507.282 418.617,506.449 418,505.5C 413.917,499.669 410.084,493.669 406.5,487.5C 405.5,487.167 404.5,486.833 403.5,486.5C 352.386,498.74 310.386,484.574 277.5,444C 292.833,443.333 308.167,443.333 323.5,444C 333.497,451.78 344.831,456.447 357.5,458C 378.677,460.542 398.344,456.376 416.5,445.5C 432.986,469.793 448.986,494.459 464.5,519.5C 442.476,534.196 418.476,543.196 392.5,546.5 Z"/></g>
<g><path style="opacity:1" fill="#9aa49a" d="M 556.5,443.5 C 567.833,443.5 579.167,443.5 590.5,443.5C 564.195,520.637 512.195,571.804 434.5,597C 387.298,609.566 340.631,608.233 294.5,593C 286.379,590.105 278.713,586.438 271.5,582C 276.576,573.182 281.909,564.516 287.5,556C 364.855,586.999 436.189,576.665 501.5,525C 526.417,502.349 544.751,475.182 556.5,443.5 Z"/></g>
<g><path style="opacity:1" fill="#d8dbd8" d="M 336.5,544.5 C 347.801,545.793 359.134,546.793 370.5,547.5C 377.831,547.056 385.165,546.722 392.5,546.5C 373.698,549.655 355.031,548.989 336.5,544.5 Z"/></g>
</svg>
